M48
;GenerationSoftware,Autodesk,EAGLE,9.6.2*%
;CreationDate,2021-01-03T19:01:05Z*%
FMAT,2
ICI,OFF
METRIC,TZ,000.000
T7C0.350
T6C0.800
T5C0.813
T4C1.000
T3C1.016
T2C1.200
T1C1.651
%
G90
M71
T1
X5080Y45720
X5080Y30480
X45720Y30480
X45720Y45720
T2
X48260Y16820
X48260Y20320
T3
X25400Y22860
X53340Y33020
X22860Y2540
X20320Y2540
X17780Y2540
X15240Y2540
X25400Y25400
X22860Y25400
X22860Y22860
X20320Y25400
X20320Y22860
X53340Y43180
X53340Y40640
X53340Y38100
X53340Y35560
T4
X38100Y30480
X35560Y30480
X33020Y30480
X30480Y30480
X25400Y30480
X22860Y30480
X17780Y30480
X15240Y30480
X20320Y30480
X27940Y30480
X12700Y45720
X10160Y45720
X7620Y45720
X12700Y30480
X10160Y30480
X15240Y45720
X38100Y45720
X43180Y45720
X40640Y45720
X35560Y45720
X33020Y45720
X7620Y30480
X30480Y45720
X27940Y45720
X25400Y45720
X22860Y45720
X20320Y45720
X17780Y45720
X43180Y30480
X40640Y30480
T5
X41910Y8890
X41910Y11430
T6
X25400Y6350
X27940Y6350
X27940Y19050
X25400Y19050
X22860Y19050
X20320Y19050
X17780Y19050
X15240Y19050
X12700Y19050
X10160Y19050
X10160Y6350
X12700Y6350
X15240Y6350
X17780Y6350
X20320Y6350
X22860Y6350
T7
X10160Y10160
X15240Y10160
X15240Y10160
M30