G04 EAGLE Gerber RS-274X export*
G75*
%MOMM*%
%FSLAX34Y34*%
%LPD*%
%INBottom Copper*%
%IPPOS*%
%AMOC8*
5,1,8,0,0,1.08239X$1,22.5*%
G01*
%ADD10R,1.508000X1.508000*%
%ADD11C,1.508000*%
%ADD12C,1.308000*%
%ADD13P,1.732040X8X112.500000*%
%ADD14C,1.600200*%
%ADD15R,2.032000X2.032000*%
%ADD16C,2.032000*%
%ADD17C,1.879600*%
%ADD18C,1.524000*%
%ADD19C,0.756400*%


D10*
X431800Y457200D03*
D11*
X406400Y457200D03*
X381000Y457200D03*
X355600Y457200D03*
X330200Y457200D03*
X304800Y457200D03*
X279400Y457200D03*
X254000Y457200D03*
X228600Y457200D03*
X203200Y457200D03*
X177800Y457200D03*
X152400Y457200D03*
X431800Y304800D03*
X406400Y304800D03*
X381000Y304800D03*
X355600Y304800D03*
X330200Y304800D03*
X304800Y304800D03*
X254000Y304800D03*
X228600Y304800D03*
X177800Y304800D03*
X152400Y304800D03*
X203200Y304800D03*
X279400Y304800D03*
X127000Y457200D03*
X101600Y457200D03*
X76200Y457200D03*
X127000Y304800D03*
X101600Y304800D03*
X76200Y304800D03*
D12*
X279400Y197040D02*
X279400Y183960D01*
X254000Y183960D02*
X254000Y197040D01*
X228600Y197040D02*
X228600Y183960D01*
X203200Y183960D02*
X203200Y197040D01*
X177800Y197040D02*
X177800Y183960D01*
X152400Y183960D02*
X152400Y197040D01*
X127000Y197040D02*
X127000Y183960D01*
X101600Y183960D02*
X101600Y197040D01*
X101600Y70040D02*
X101600Y56960D01*
X127000Y56960D02*
X127000Y70040D01*
X152400Y70040D02*
X152400Y56960D01*
X177800Y56960D02*
X177800Y70040D01*
X203200Y70040D02*
X203200Y56960D01*
X228600Y56960D02*
X228600Y70040D01*
X254000Y70040D02*
X254000Y56960D01*
X279400Y56960D02*
X279400Y70040D01*
D13*
X419100Y114300D03*
D14*
X419100Y88900D03*
D15*
X482600Y203200D03*
D16*
X482600Y168200D03*
D17*
X228600Y25400D03*
X203200Y25400D03*
X177800Y25400D03*
X152400Y25400D03*
X254000Y254000D03*
X254000Y228600D03*
X228600Y254000D03*
X228600Y228600D03*
X203200Y254000D03*
X203200Y228600D03*
X533400Y431800D03*
X533400Y406400D03*
X533400Y381000D03*
X533400Y355600D03*
X533400Y330200D03*
D18*
X203200Y228600D02*
X203200Y190500D01*
X228600Y190500D02*
X228600Y228600D01*
X254000Y228600D02*
X254000Y190500D01*
X406400Y215900D02*
X406400Y304800D01*
X406400Y215900D02*
X454100Y168200D01*
X482600Y168200D01*
X454100Y149300D02*
X419100Y114300D01*
X454100Y149300D02*
X454100Y168200D01*
X254000Y101600D02*
X254000Y63500D01*
X254000Y101600D02*
X266700Y114300D01*
X419100Y114300D01*
X406400Y304800D02*
X406400Y330200D01*
X101600Y101600D02*
X101600Y63500D01*
D19*
X101600Y101600D03*
X152400Y101600D03*
X152400Y101600D03*
D18*
X254000Y101600D01*
X406400Y330200D02*
X508000Y330200D01*
X533400Y330200D01*
X228600Y254000D02*
X203200Y254000D01*
X228600Y254000D02*
X254000Y254000D01*
X317500Y254000D01*
X355600Y292100D01*
X355600Y304800D01*
X317500Y254000D02*
X317500Y165100D01*
X304800Y152400D01*
X203200Y152400D01*
X355600Y304800D02*
X355600Y317500D01*
X393700Y355600D01*
X533400Y355600D01*
X203200Y152400D02*
X177800Y127000D01*
X127000Y127000D02*
X127000Y63500D01*
X127000Y127000D02*
X177800Y127000D01*
X177800Y190500D02*
X152400Y190500D01*
X228600Y444500D02*
X228600Y457200D01*
X203200Y419100D02*
X17780Y419100D01*
X17780Y152400D01*
X127000Y152400D01*
X127000Y190500D01*
X203200Y419100D02*
X228600Y444500D01*
X254000Y431800D02*
X215900Y393700D01*
X38100Y393700D01*
X38100Y190500D01*
X101600Y190500D01*
X254000Y431800D02*
X254000Y457200D01*
X482600Y241300D02*
X482600Y203200D01*
X482600Y241300D02*
X431800Y292100D01*
X431800Y304800D01*
X482600Y203200D02*
X520700Y203200D01*
X520700Y114300D02*
X495300Y88900D01*
X419100Y88900D01*
X520700Y114300D02*
X520700Y203200D01*
X419100Y88900D02*
X393700Y63500D01*
X279400Y63500D01*
X228600Y63500D02*
X228600Y25400D01*
X203200Y25400D02*
X203200Y63500D01*
X177800Y63500D02*
X177800Y25400D01*
X152400Y25400D02*
X152400Y63500D01*
X304800Y431800D02*
X533400Y431800D01*
X304800Y431800D02*
X304800Y457200D01*
X279400Y406400D02*
X533400Y406400D01*
X279400Y406400D02*
X279400Y457200D01*
X330200Y457200D02*
X330200Y482600D01*
X546100Y482600D01*
X558800Y469900D01*
X558800Y381000D01*
X533400Y381000D01*
M02*
